<svg width="198" height="24" viewBox="0 0 198 24" fill="none" xmlns="http://www.w3.org/2000/svg">
<path d="M0.656 23V0.599998H4.944L14.48 16.408H12.208L21.584 0.599998H25.84L25.904 23H21.04L21.008 8.056H21.904L14.416 20.632H12.08L4.432 8.056H5.52V23H0.656ZM29.8745 23L39.8585 0.599998H44.9785L54.9945 23H49.5545L41.3625 3.224H43.4105L35.1865 23H29.8745ZM34.8665 18.2L36.2425 14.264H47.7625L49.1705 18.2H34.8665ZM58.9185 23V0.599998H68.6145C70.6198 0.599998 72.3478 0.930665 73.7985 1.592C75.2492 2.232 76.3692 3.16 77.1585 4.376C77.9478 5.592 78.3425 7.04267 78.3425 8.728C78.3425 10.392 77.9478 11.832 77.1585 13.048C76.3692 14.2427 75.2492 15.16 73.7985 15.8C72.3478 16.44 70.6198 16.76 68.6145 16.76H61.7985L64.1025 14.488V23H58.9185ZM73.1585 23L67.5585 14.872H73.0945L78.7585 23H73.1585ZM64.1025 15.064L61.7985 12.632H68.3265C69.9265 12.632 71.1212 12.2907 71.9105 11.608C72.6998 10.904 73.0945 9.944 73.0945 8.728C73.0945 7.49067 72.6998 6.53067 71.9105 5.848C71.1212 5.16533 69.9265 4.824 68.3265 4.824H61.7985L64.1025 2.36V15.064ZM88.3773 23V4.824H81.2093V0.599998H100.729V4.824H93.5613V23H88.3773ZM120.479 0.599998H125.663V23H120.479V0.599998ZM110.303 23H105.119V0.599998H110.303V23ZM120.863 13.816H109.919V9.432H120.863V13.816ZM137.33 9.624H148.114V13.656H137.33V9.624ZM137.714 18.84H149.906V23H132.562V0.599998H149.49V4.76H137.714V18.84ZM166.293 23V0.599998H177.237C180.053 0.599998 182.165 1.13333 183.573 2.2C185.003 3.26667 185.717 4.67467 185.717 6.424C185.717 7.59733 185.429 8.62133 184.853 9.496C184.277 10.3493 183.488 11.0107 182.485 11.48C181.483 11.9493 180.331 12.184 179.029 12.184L179.637 10.872C181.045 10.872 182.293 11.1067 183.381 11.576C184.469 12.024 185.312 12.696 185.909 13.592C186.528 14.488 186.837 15.5867 186.837 16.888C186.837 18.808 186.08 20.312 184.565 21.4C183.051 22.4667 180.821 23 177.877 23H166.293ZM171.445 19.096H177.493C178.837 19.096 179.851 18.8827 180.533 18.456C181.237 18.008 181.589 17.304 181.589 16.344C181.589 15.4053 181.237 14.712 180.533 14.264C179.851 13.7947 178.837 13.56 177.493 13.56H171.061V9.784H176.597C177.856 9.784 178.816 9.57067 179.477 9.144C180.16 8.696 180.501 8.024 180.501 7.128C180.501 6.25333 180.16 5.60267 179.477 5.176C178.816 4.728 177.856 4.504 176.597 4.504H171.445V19.096ZM194.023 23.256C193.17 23.256 192.434 22.968 191.815 22.392C191.218 21.7947 190.919 21.0373 190.919 20.12C190.919 19.2027 191.218 18.4667 191.815 17.912C192.434 17.336 193.17 17.048 194.023 17.048C194.898 17.048 195.634 17.336 196.231 17.912C196.829 18.4667 197.127 19.2027 197.127 20.12C197.127 21.0373 196.829 21.7947 196.231 22.392C195.634 22.968 194.898 23.256 194.023 23.256Z" fill="black"/>
</svg>
